<svg xmlns="http://www.w3.org/2000/svg" viewBox="0 0 420 140" width="420" height="140" role="img" aria-label="mozaik">
  <rect width="420" height="140" fill="#000000" rx="10"/>
  <rect x="0.5" y="0.5" width="419" height="139" fill="none" stroke="#78AAF6" stroke-opacity="0.22" stroke-width="1" rx="10"/>

  <g transform="translate(20, 26)" fill="none" stroke="#78AAF6" stroke-width="1.6" stroke-linecap="round" stroke-linejoin="round">
    <path d="M2 1.5 h11 a2 2 0 0 1 2 2 v11 a1.5 1.5 0 0 1 -1.5 1.5 h-10 a1.5 1.5 0 0 1 -1.5 -1.5 v-11.5 a2 2 0 0 1 2 -2 z"/>
    <path d="M4 12 h9"/>
  </g>

  <text x="44" y="38" font-family="Inter, -apple-system, BlinkMacSystemFont, 'Segoe UI', Roboto, sans-serif" font-size="16" font-weight="700" fill="#78AAF6">mozaik</text>

  <text x="24" y="74" font-family="Inter, -apple-system, BlinkMacSystemFont, 'Segoe UI', Roboto, sans-serif" font-size="13" fill="#FFFFFF" fill-opacity="0.72">TS runtime · reactive agents on a shared event bus</text>

  <circle cx="30" cy="117" r="5" fill="#3178C6"/>
  <text x="42" y="121" font-family="Inter, -apple-system, BlinkMacSystemFont, 'Segoe UI', Roboto, sans-serif" font-size="12" fill="#FFFFFF" fill-opacity="0.7">TypeScript</text>

  <g transform="translate(170, 117)">
    <path d="M0 -5.2 L1.5 -1.6 L5.3 -1.1 L2.5 1.5 L3.2 5.3 L0 3.4 L-3.2 5.3 L-2.5 1.5 L-5.3 -1.1 L-1.5 -1.6 Z" fill="#90E86F"/>
  </g>
  <text x="180" y="121" font-family="Inter, -apple-system, BlinkMacSystemFont, 'Segoe UI', Roboto, sans-serif" font-size="12" fill="#FFFFFF" fill-opacity="0.7">25</text>

  <g transform="translate(228, 117)" fill="#90E86F" stroke="#90E86F" stroke-linecap="round">
    <circle cx="-4" cy="-4.5" r="1.9" stroke="none"/>
    <circle cx="4" cy="-4.5" r="1.9" stroke="none"/>
    <circle cx="0" cy="4.5" r="1.9" stroke="none"/>
    <path d="M-4 -2.5 v0.7 a2.3 2.3 0 0 0 2.3 2.3 h3.4 a2.3 2.3 0 0 0 2.3 -2.3 v-0.7" fill="none" stroke-width="1.3"/>
    <line x1="0" y1="0.5" x2="0" y2="2.5" stroke-width="1.3"/>
  </g>
  <text x="240" y="121" font-family="Inter, -apple-system, BlinkMacSystemFont, 'Segoe UI', Roboto, sans-serif" font-size="12" fill="#FFFFFF" fill-opacity="0.7">3</text>
</svg>
